<svg xmlns="http://www.w3.org/2000/svg" viewBox="0 0 900 446" font-family="Arial, Helvetica, sans-serif" font-size="14">
  <rect x="0" y="0" width="900" height="446" fill="#f9f9f9" rx="8"/>
  <text x="450.0" y="28" text-anchor="middle" font-size="17" font-weight="bold" fill="#1a1a1a">Figure 1: Pairing, gyro calibration, and trim on the controller</text>
  <text x="450.0" y="46" text-anchor="middle" font-size="12" fill="#555555">Stick positions are for the Holy Stone HS210. Other models use a different corner — check the manual.</text>
  <g>
    <rect x="15.0" y="62" width="280" height="356" rx="10" fill="#ffffff" stroke="#dde3e9" stroke-width="1.5"/>
    <text x="155" y="90" text-anchor="middle" font-size="15" font-weight="bold" fill="#1a1a1a">a. Pair</text>
    <text x="155" y="354" text-anchor="middle" font-size="12.5" fill="#555555">Left stick up, then down.</text>
    <text x="155" y="371" text-anchor="middle" font-size="12.5" fill="#555555">Solid lights = paired.</text>
    <g transform="translate(33.2,165) scale(0.58)">
      <g>
        <!-- generic controller -->
        <g stroke="#333333" stroke-width="7" stroke-linecap="round">
          <line x1="15" y1="2" x2="-2" y2="-95"/>
          <line x1="405" y1="2" x2="422" y2="-95"/>
        </g>
        <rect x="45" y="-12" width="44" height="14" rx="7" fill="#444444" stroke="#222222"/>
        <g stroke="#888888" stroke-width="1">
          <line x1="55" y1="-10" x2="55" y2="0"/>
          <line x1="62" y1="-10" x2="62" y2="0"/>
          <line x1="69" y1="-10" x2="69" y2="0"/>
          <line x1="76" y1="-10" x2="76" y2="0"/>
        </g>
        <rect x="331" y="-12" width="44" height="14" rx="7" fill="#444444" stroke="#222222"/>
        <circle cx="364" cy="-5" r="3.5" fill="#e74c3c"/>
        <rect x="0" y="0" width="420" height="190" rx="45" fill="#d0d7de" stroke="#333333" stroke-width="2"/>
        <circle cx="90" cy="92" r="32" fill="#b8c0c8" stroke="#333333" stroke-width="1.5"/>
        <circle cx="90" cy="92" r="15" fill="#333333"/>
        <circle cx="90" cy="92" r="6" fill="#666666"/>
        <circle cx="330" cy="92" r="32" fill="#b8c0c8" stroke="#333333" stroke-width="1.5"/>
        <circle cx="330" cy="92" r="15" fill="#333333"/>
        <circle cx="330" cy="92" r="6" fill="#666666"/>
        <circle cx="210" cy="45" r="12" fill="#ffffff" stroke="#333333" stroke-width="1.5"/>
        <text x="210" y="50" text-anchor="middle" font-size="12" font-weight="bold" fill="#1a1a1a">H</text>
        <rect x="175" y="72" width="70" height="16" rx="8" fill="#eeeeee" stroke="#333333" stroke-width="1.5"/>
        <circle cx="210" cy="80" r="6" fill="#4a90d9" stroke="#1a1a1a" stroke-width="1"/>
        <circle cx="190" cy="152" r="8" fill="#ffffff" stroke="#333333" stroke-width="1.5"/>
        <path d="M190 147 v5 M186.5 149.5 a4.5 4.5 0 1 0 7 0" stroke="#333333" stroke-width="1.5" fill="none" stroke-linecap="round"/>
        <circle cx="215" cy="152" r="3.5" fill="#27ae60"/>
        <circle cx="227" cy="152" r="3.5" fill="#27ae60"/>
        <circle cx="239" cy="152" r="3.5" fill="#27ae60"/>
        <circle cx="251" cy="152" r="3.5" fill="#cccccc" stroke="#999999" stroke-width="0.5"/>
        <rect x="201" y="183" width="18" height="6" rx="3" fill="#333333"/>
      </g>
    </g>
    <circle cx="85.4" cy="218.36" r="18.56" fill="#ffffff" stroke="#333333" stroke-width="1.5"/>
    <circle cx="85.4" cy="218.36" r="6.3104000000000005" fill="none" stroke="#cccccc" stroke-width="1" stroke-dasharray="3 3"/>
    <circle cx="85.4" cy="218.36" r="6.3104000000000005" fill="#444444" stroke="#333333" stroke-width="1.2"/>
    <g transform="translate(224.59999999999997,218.36) scale(0.58)">
      <g>
        <circle cx="0" cy="0" r="32" fill="#ffffff" stroke="#c8d0d8" stroke-width="1.5"/>
        <circle cx="0" cy="0" r="10.88" fill="none" stroke="#cccccc" stroke-width="1" stroke-dasharray="3 3"/>
        <circle cx="0.0" cy="0.0" r="10.88" fill="#c8d0d8" stroke="#c8d0d8" stroke-width="1.2"/>
      </g>
    </g>
    <g>
      <line x1="85.4" y1="195.16" x2="85.4" y2="179.8" stroke="#4a90d9" stroke-width="2.5" stroke-linecap="round"/>
      <polygon points="85.4,170.8 89.9,179.8 80.9,179.8" fill="#4a90d9"/>
    </g>
    <circle cx="63.36" cy="180.07999999999998" r="11" fill="#4a90d9"/>
    <text x="63.36" y="184.07999999999998" text-anchor="middle" font-size="12" font-weight="bold" fill="#ffffff">1</text>
    <g>
      <line x1="85.4" y1="241.56" x2="85.4" y2="256.91999999999996" stroke="#4a90d9" stroke-width="2.5" stroke-linecap="round"/>
      <polygon points="85.4,265.91999999999996 80.9,256.91999999999996 89.9,256.91999999999996" fill="#4a90d9"/>
    </g>
    <circle cx="63.36" cy="253.16" r="11" fill="#4a90d9"/>
    <text x="63.36" y="257.15999999999997" text-anchor="middle" font-size="12" font-weight="bold" fill="#ffffff">2</text>
    <text x="155.0" y="301.2" text-anchor="middle" font-size="12" font-style="italic" fill="#555555">drone on a flat, level surface, nose away</text>
  </g>
  <g>
    <rect x="310.0" y="62" width="280" height="356" rx="10" fill="#ffffff" stroke="#dde3e9" stroke-width="1.5"/>
    <text x="450" y="90" text-anchor="middle" font-size="15" font-weight="bold" fill="#1a1a1a">b. Calibrate the gyro</text>
    <text x="450" y="354" text-anchor="middle" font-size="12.5" fill="#555555">Both sticks to the lower-left corner</text>
    <text x="450" y="371" text-anchor="middle" font-size="12.5" fill="#555555">and hold. Lights blink fast, then solid;</text>
    <text x="450" y="388" text-anchor="middle" font-size="12.5" fill="#555555">one long beep = done. Drone still</text>
    <text x="450" y="405" text-anchor="middle" font-size="12.5" fill="#555555">and level.</text>
    <g transform="translate(328.2,165) scale(0.58)">
      <g>
        <!-- generic controller -->
        <g stroke="#333333" stroke-width="7" stroke-linecap="round">
          <line x1="15" y1="2" x2="-2" y2="-95"/>
          <line x1="405" y1="2" x2="422" y2="-95"/>
        </g>
        <rect x="45" y="-12" width="44" height="14" rx="7" fill="#444444" stroke="#222222"/>
        <g stroke="#888888" stroke-width="1">
          <line x1="55" y1="-10" x2="55" y2="0"/>
          <line x1="62" y1="-10" x2="62" y2="0"/>
          <line x1="69" y1="-10" x2="69" y2="0"/>
          <line x1="76" y1="-10" x2="76" y2="0"/>
        </g>
        <rect x="331" y="-12" width="44" height="14" rx="7" fill="#444444" stroke="#222222"/>
        <circle cx="364" cy="-5" r="3.5" fill="#e74c3c"/>
        <rect x="0" y="0" width="420" height="190" rx="45" fill="#d0d7de" stroke="#333333" stroke-width="2"/>
        <circle cx="90" cy="92" r="32" fill="#b8c0c8" stroke="#333333" stroke-width="1.5"/>
        <circle cx="90" cy="92" r="15" fill="#333333"/>
        <circle cx="90" cy="92" r="6" fill="#666666"/>
        <circle cx="330" cy="92" r="32" fill="#b8c0c8" stroke="#333333" stroke-width="1.5"/>
        <circle cx="330" cy="92" r="15" fill="#333333"/>
        <circle cx="330" cy="92" r="6" fill="#666666"/>
        <circle cx="210" cy="45" r="12" fill="#ffffff" stroke="#333333" stroke-width="1.5"/>
        <text x="210" y="50" text-anchor="middle" font-size="12" font-weight="bold" fill="#1a1a1a">H</text>
        <rect x="175" y="72" width="70" height="16" rx="8" fill="#eeeeee" stroke="#333333" stroke-width="1.5"/>
        <circle cx="210" cy="80" r="6" fill="#4a90d9" stroke="#1a1a1a" stroke-width="1"/>
        <circle cx="190" cy="152" r="8" fill="#ffffff" stroke="#333333" stroke-width="1.5"/>
        <path d="M190 147 v5 M186.5 149.5 a4.5 4.5 0 1 0 7 0" stroke="#333333" stroke-width="1.5" fill="none" stroke-linecap="round"/>
        <circle cx="215" cy="152" r="3.5" fill="#27ae60"/>
        <circle cx="227" cy="152" r="3.5" fill="#27ae60"/>
        <circle cx="239" cy="152" r="3.5" fill="#27ae60"/>
        <circle cx="251" cy="152" r="3.5" fill="#cccccc" stroke="#999999" stroke-width="0.5"/>
        <rect x="201" y="183" width="18" height="6" rx="3" fill="#333333"/>
      </g>
    </g>
    <circle cx="380.4" cy="218.36" r="18.56" fill="#ffffff" stroke="#333333" stroke-width="1.5"/>
    <circle cx="380.4" cy="218.36" r="6.3104000000000005" fill="none" stroke="#cccccc" stroke-width="1" stroke-dasharray="3 3"/>
    <circle cx="373.45113599999996" cy="225.308864" r="6.3104000000000005" fill="#444444" stroke="#333333" stroke-width="1.2"/>
    <g>
      <line x1="366.61990304823655" y1="232.14009695176344" x2="356.6694964233794" y2="242.09050357662056" stroke="#4a90d9" stroke-width="2.5" stroke-linecap="round"/>
      <polygon points="350.3055353927005,248.45446460729949 353.48751590803994,238.9085230612811 359.8514769387189,245.27248409196002" fill="#4a90d9"/>
    </g>
    <circle cx="519.5999999999999" cy="218.36" r="18.56" fill="#ffffff" stroke="#333333" stroke-width="1.5"/>
    <circle cx="519.5999999999999" cy="218.36" r="6.3104000000000005" fill="none" stroke="#cccccc" stroke-width="1" stroke-dasharray="3 3"/>
    <circle cx="512.651136" cy="225.308864" r="6.3104000000000005" fill="#444444" stroke="#333333" stroke-width="1.2"/>
    <g>
      <line x1="505.8199030482365" y1="232.14009695176344" x2="495.86949642337936" y2="242.09050357662056" stroke="#4a90d9" stroke-width="2.5" stroke-linecap="round"/>
      <polygon points="489.50553539270044,248.45446460729949 492.68751590803987,238.9085230612811 499.05147693871885,245.27248409196002" fill="#4a90d9"/>
    </g>
    <text x="450.0" y="301.2" text-anchor="middle" font-size="12" font-style="italic" fill="#555555">hold both sticks there until the beep</text>
  </g>
  <g>
    <rect x="605.0" y="62" width="280" height="356" rx="10" fill="#ffffff" stroke="#dde3e9" stroke-width="1.5"/>
    <text x="745" y="90" text-anchor="middle" font-size="15" font-weight="bold" fill="#1a1a1a">c. Trim (only if it still drifts)</text>
    <text x="745" y="354" text-anchor="middle" font-size="12.5" fill="#555555">Press the throttle stick in, push the</text>
    <text x="745" y="371" text-anchor="middle" font-size="12.5" fill="#555555">direction stick against the drift.</text>
    <g transform="translate(623.2,165) scale(0.58)">
      <g>
        <!-- generic controller -->
        <g stroke="#333333" stroke-width="7" stroke-linecap="round">
          <line x1="15" y1="2" x2="-2" y2="-95"/>
          <line x1="405" y1="2" x2="422" y2="-95"/>
        </g>
        <rect x="45" y="-12" width="44" height="14" rx="7" fill="#444444" stroke="#222222"/>
        <g stroke="#888888" stroke-width="1">
          <line x1="55" y1="-10" x2="55" y2="0"/>
          <line x1="62" y1="-10" x2="62" y2="0"/>
          <line x1="69" y1="-10" x2="69" y2="0"/>
          <line x1="76" y1="-10" x2="76" y2="0"/>
        </g>
        <rect x="331" y="-12" width="44" height="14" rx="7" fill="#444444" stroke="#222222"/>
        <circle cx="364" cy="-5" r="3.5" fill="#e74c3c"/>
        <rect x="0" y="0" width="420" height="190" rx="45" fill="#d0d7de" stroke="#333333" stroke-width="2"/>
        <circle cx="90" cy="92" r="32" fill="#b8c0c8" stroke="#333333" stroke-width="1.5"/>
        <circle cx="90" cy="92" r="15" fill="#333333"/>
        <circle cx="90" cy="92" r="6" fill="#666666"/>
        <circle cx="330" cy="92" r="32" fill="#b8c0c8" stroke="#333333" stroke-width="1.5"/>
        <circle cx="330" cy="92" r="15" fill="#333333"/>
        <circle cx="330" cy="92" r="6" fill="#666666"/>
        <circle cx="210" cy="45" r="12" fill="#ffffff" stroke="#333333" stroke-width="1.5"/>
        <text x="210" y="50" text-anchor="middle" font-size="12" font-weight="bold" fill="#1a1a1a">H</text>
        <rect x="175" y="72" width="70" height="16" rx="8" fill="#eeeeee" stroke="#333333" stroke-width="1.5"/>
        <circle cx="210" cy="80" r="6" fill="#4a90d9" stroke="#1a1a1a" stroke-width="1"/>
        <circle cx="190" cy="152" r="8" fill="#ffffff" stroke="#333333" stroke-width="1.5"/>
        <path d="M190 147 v5 M186.5 149.5 a4.5 4.5 0 1 0 7 0" stroke="#333333" stroke-width="1.5" fill="none" stroke-linecap="round"/>
        <circle cx="215" cy="152" r="3.5" fill="#27ae60"/>
        <circle cx="227" cy="152" r="3.5" fill="#27ae60"/>
        <circle cx="239" cy="152" r="3.5" fill="#27ae60"/>
        <circle cx="251" cy="152" r="3.5" fill="#cccccc" stroke="#999999" stroke-width="0.5"/>
        <rect x="201" y="183" width="18" height="6" rx="3" fill="#333333"/>
      </g>
    </g>
    <circle cx="675.4000000000001" cy="218.36" r="18.56" fill="#ffffff" stroke="#333333" stroke-width="1.5"/>
    <circle cx="675.4000000000001" cy="218.36" r="6.3104000000000005" fill="none" stroke="#cccccc" stroke-width="1" stroke-dasharray="3 3"/>
    <circle cx="675.4000000000001" cy="218.36" r="6.3104000000000005" fill="#444444" stroke="#333333" stroke-width="1.2"/>
    <circle cx="814.6" cy="218.36" r="18.56" fill="#ffffff" stroke="#333333" stroke-width="1.5"/>
    <circle cx="814.6" cy="218.36" r="6.3104000000000005" fill="none" stroke="#cccccc" stroke-width="1" stroke-dasharray="3 3"/>
    <circle cx="824.2512" cy="218.36" r="6.3104000000000005" fill="#444444" stroke="#333333" stroke-width="1.2"/>
    <g>
      <line x1="834.088" y1="218.36" x2="848.1600000000001" y2="218.36" stroke="#4a90d9" stroke-width="2.5" stroke-linecap="round"/>
      <polygon points="857.1600000000001,218.36 848.1600000000001,222.86 848.1600000000001,213.86" fill="#4a90d9"/>
    </g>
    <circle cx="675.4000000000001" cy="218.36" r="25.52" fill="none" stroke="#4a90d9" stroke-width="1.6" stroke-dasharray="4 4"/>
    <circle cx="675.4000000000001" cy="218.36" r="30.159999999999997" fill="none" stroke="#4a90d9" stroke-width="1.6" stroke-dasharray="4 4"/>
    <text x="675.4000000000001" y="299.2" text-anchor="middle" font-size="12" fill="#4a90d9">press in</text>
    <g transform="translate(811,319.2)">
      <g transform="scale(0.34)">
        <g>
          <g stroke="#333333" stroke-width="5" stroke-linecap="round">
            <line x1="-8.4" y1="-12.0" x2="-30" y2="-24"/>
            <line x1="8.4" y1="-12.0" x2="30" y2="-24"/>
            <line x1="-8.4" y1="12.0" x2="-30" y2="24"/>
            <line x1="8.4" y1="12.0" x2="30" y2="24"/>
          </g>
          <g fill="#e8edf2" stroke="#b6c2cc" stroke-width="1">
            <circle cx="-30" cy="-24" r="15"/>
            <circle cx="30" cy="-24" r="15"/>
            <circle cx="-30" cy="24" r="15"/>
            <circle cx="30" cy="24" r="15"/>
          </g>
          <g fill="#444444">
            <circle cx="-30" cy="-24" r="5"/>
            <circle cx="30" cy="-24" r="5"/>
            <circle cx="-30" cy="24" r="5"/>
            <circle cx="30" cy="24" r="5"/>
          </g>
          <rect x="-11" y="-20" width="22" height="40" rx="6" fill="#d0d7de" stroke="#333333" stroke-width="1.5"/>
          <polygon points="0,-37 -11,-21 11,-21" fill="#444444" stroke="#333333" stroke-width="1"/>
        </g>
      </g>
    </g>
    <g>
      <line x1="785" y1="319.2" x2="759.0" y2="319.2" stroke="#4a90d9" stroke-width="2.5" stroke-linecap="round"/>
      <polygon points="751,319.2 759.0,315.2 759.0,323.2" fill="#4a90d9"/>
    </g>
    <text x="779" y="299.2" text-anchor="middle" font-size="12" fill="#555555">drone drifts</text>
  </g>
</svg>
